# xmcd CD database file
#
# Track frame offsets:
#	150
#	22595
#	40650
#	67455
#	92705
#	114987
#	132417
#	151297
#	173257
#	198042
#	219317
#	237842
#	259997
#	280167
#	298670
#	318170
#	335125
#
# Disc length: 4687 seconds
#
# Revision: 2
# Processed by: cddbd v1.4PL0 Copyright (c) Steve Scherf et al.
# Submitted via: CDex 1.40Beta9
#
DISCID=ec124d11
DTITLE=Various Artist - Kontor - Sunset Chill Vol. 2 [CD1)
DYEAR=2002
DGENRE=Chill Out
TTITLE0=Saints and Sinners - Peace (Michael Woods Remix)
TTITLE1=Iio - Rapture (Soulside Remix)
TTITLE2=Spiller - Cry Baby (Röyksopp's Malselves Memorabilia Mix)
TTITLE3=Depeche Mode - When The Body Speaks
TTITLE4=Kinobe feat. Ben and Jason - Slip Into Something More Comfortable
TTITLE5=Mo'Horizons - Foto Viva
TTITLE6=The Love Unlimited Orchestra - Strange Games And Things
TTITLE7=Rose Royce - Wishing On A Star
TTITLE8=Electribe 101 - Talking With Myself (Frankie Knuckles Mix)
TTITLE9=Don Carlos - Still Alone
TTITLE10=Kings Of Tomorrow - Finally (Dance Ritual Radio Mix)
TTITLE11=Satin Souls - Recover
TTITLE12=Lovebirds - The Limit
TTITLE13=Derrick White - Soul 2 Let Go (Original Mix)
TTITLE14=Innocence - Natural Thing
TTITLE15=Denox - Lo_Fi City
TTITLE16=Air Libre - El Arbi (Sa Trincha Sunset Radio Mix)
EXTD=A&R by Jens Thele and Markus Gardeweg\r\nwww.kontor.cc YEAR: 2002
EXTT0=
EXTT1=
EXTT2=
EXTT3=
EXTT4=
EXTT5=
EXTT6=
EXTT7=
EXTT8=
EXTT9=
EXTT10=
EXTT11=
EXTT12=
EXTT13=
EXTT14=
EXTT15=
EXTT16=
PLAYORDER=
